<svg xmlns="http://www.w3.org/2000/svg" xmlns:xlink="http://www.w3.org/1999/xlink" width="138" height="21" viewBox="0 0 138 21"><defs><clipPath id="a"><rect width="138" height="21" transform="translate(0.022 -0.312)" fill="#636363"/></clipPath></defs><g transform="translate(-0.022 0.312)" clip-path="url(#a)"><path d="M12796.6,25.134s.111-.632.629-.616.616.683.616.683V38.171l16.954.019s.637,0,.637.575-.637.666-.637.666l-18.218-.019Z" transform="translate(-12794.16 -22.571)" fill="#636363"/><path d="M13053.676,38.8a.646.646,0,0,0,0,.849.673.673,0,0,0,.859.072l10.836-12.843,10.854,12.72a.616.616,0,0,0,.809.107c.5-.286.1-.923.1-.923l-11.758-13.771Z" transform="translate(-13029.482 -23.026)" fill="#636363"/><path d="M13172.3,165.769h4.715l-2.331-4.428Z" transform="translate(-13138.75 -148.646)" fill="#636363"/><path d="M13372.735,29.281a.722.722,0,0,1,.675-.527.546.546,0,0,1,.556.527l.015,12.737h17.1a.627.627,0,0,1,.528.653.548.548,0,0,1-.528.594h-18.351Z" transform="translate(-13321.864 -26.451)" fill="#636363"/><path d="M-12758.49,15.723a14.027,14.027,0,0,1-2.117-.16,13.16,13.16,0,0,1-1.975-.458,12.047,12.047,0,0,1-1.784-.725,10.539,10.539,0,0,1-1.556-.96,8.913,8.913,0,0,1-1.283-1.164,7.589,7.589,0,0,1-.969-1.335,6.422,6.422,0,0,1-.612-1.476,5.95,5.95,0,0,1-.214-1.584,5.95,5.95,0,0,1,.214-1.584,6.422,6.422,0,0,1,.612-1.476,7.59,7.59,0,0,1,.969-1.335,8.912,8.912,0,0,1,1.283-1.164,10.538,10.538,0,0,1,1.556-.96,12.049,12.049,0,0,1,1.784-.725,13.2,13.2,0,0,1,1.973-.458,14.06,14.06,0,0,1,2.119-.16,14.071,14.071,0,0,1,2.119.16,13.106,13.106,0,0,1,1.971.458,11.9,11.9,0,0,1,1.786.725,10.537,10.537,0,0,1,1.556.96,8.915,8.915,0,0,1,1.283,1.164,7.394,7.394,0,0,1,.969,1.335,6.468,6.468,0,0,1,.613,1.476,5.989,5.989,0,0,1,.213,1.584,5.989,5.989,0,0,1-.213,1.584,6.551,6.551,0,0,1-.611,1.476,7.5,7.5,0,0,1-.971,1.335,8.955,8.955,0,0,1-1.282,1.163,10.6,10.6,0,0,1-1.557.96,11.96,11.96,0,0,1-1.784.725,13.188,13.188,0,0,1-1.973.458A14.07,14.07,0,0,1-12758.49,15.723Zm0-14.552a12.1,12.1,0,0,0-1.814.136,11.354,11.354,0,0,0-1.692.39,10.405,10.405,0,0,0-1.531.617,9.1,9.1,0,0,0-1.332.817,7.633,7.633,0,0,0-1.1.99,6.331,6.331,0,0,0-.83,1.136,5.435,5.435,0,0,0-.525,1.256,5.115,5.115,0,0,0-.185,1.348,5.116,5.116,0,0,0,.185,1.348,5.435,5.435,0,0,0,.525,1.256,6.334,6.334,0,0,0,.83,1.137,7.63,7.63,0,0,0,1.1.99,9.1,9.1,0,0,0,1.332.817,10.4,10.4,0,0,0,1.531.617,11.351,11.351,0,0,0,1.692.39,12.1,12.1,0,0,0,1.814.136,12.1,12.1,0,0,0,1.814-.136,11.324,11.324,0,0,0,1.692-.39,10.293,10.293,0,0,0,1.529-.617,9.01,9.01,0,0,0,1.334-.817,7.632,7.632,0,0,0,1.1-.99,6.44,6.44,0,0,0,.832-1.137,5.516,5.516,0,0,0,.523-1.256,5.034,5.034,0,0,0,.183-1.348,5.034,5.034,0,0,0-.183-1.348,5.516,5.516,0,0,0-.523-1.256,6.44,6.44,0,0,0-.832-1.137,7.632,7.632,0,0,0-1.1-.99,9.009,9.009,0,0,0-1.334-.817,10.3,10.3,0,0,0-1.529-.617,11.321,11.321,0,0,0-1.692-.39,12.1,12.1,0,0,0-1.814-.136Z" transform="translate(12839.06 1.736)" fill="#636363"/><path d="M13874.8,28.519V38.3s.354,4.244,6.029,4.529h7.217s5.457-.673,5.783-4.529V28.519a.645.645,0,0,0-.643-.4.581.581,0,0,0-.607.4V38.3s-.4,2.634-4.533,3.255c-3.076.078-7.217,0-7.217,0s-3.867-.017-4.826-3.255h0V28.519a.558.558,0,0,0-.582-.455.618.618,0,0,0-.621.455Z" transform="translate(-13781.718 -25.817)" fill="#636363"/><path d="M14154.6,36.523a4.835,4.835,0,0,0-4.178-3.354,33.256,33.256,0,0,0-9.2-.131c-3.152.53-5.557,3.579-.721,4.577,2.854.42,8.318.941,8.674.992s3.793.241,5.094,1.338,2.762,2.81.48,4.807c-2.2,1.674-5.143,1.388-6.891,1.331s-5.417-.09-5.831-.16a6.886,6.886,0,0,1-4.069-1.84,4.284,4.284,0,0,1-1.429-2.737.581.581,0,0,1,.52-.621.646.646,0,0,1,.7.471s.5,2.84,4.421,3.491c3.843.3,8.951.064,8.951.064a8.673,8.673,0,0,0,2.214-.531c.6-.34,1.283-.87,1.33-1.482a1.991,1.991,0,0,0-.9-1.557,6.238,6.238,0,0,0-3.576-1.174c-1.909-.134-9.427-1.026-10.566-1.345s-3.643-1.446-3.1-3.453,2.819-3.313,4.693-3.459a64.241,64.241,0,0,1,7.063-.109,10.2,10.2,0,0,1,5.886,1.9,6.259,6.259,0,0,1,1.659,2.839s.162.825-.486.89S14154.6,36.523,14154.6,36.523Z" transform="translate(-14021.367 -29.045)" fill="#636363"/></g></svg>